<?xml version="1.0" encoding="UTF-8"?>
<svg id="Layer_2" data-name="Layer 2" xmlns="http://www.w3.org/2000/svg" viewBox="0 0 132.94 45.95">
  <defs>
    <style>
      .cls-1 {
        fill: var(--main-logo-color);
      }

      .cls-1, .cls-2 {
        stroke: var(--main-logo-color);
        stroke-miterlimit: 10;
      }

      .cls-2 {
        fill: none;
      }
    </style>
  </defs>
  <g id="Layer_1-2" data-name="Layer 1">
    <polyline class="cls-2" points=".5 45.6 .5 20.01 19.42 10.41"/>
    <polyline class="cls-2" points="25.72 45.6 25.72 .81 44.64 10.41 44.64 45.6"/>
    <polygon class="cls-1" points="38.34 13.57 38.34 45.11 32.03 45.11 32.03 10.41 38.34 13.57"/>
    <line class="cls-2" x1="6.81" y1="45.6" x2="6.81" y2="23.21"/>
    <line class="cls-2" x1="13.11" y1="45.6" x2="13.11" y2="20.01"/>
    <line class="cls-2" x1="19.42" y1="16.81" x2="19.42" y2="45.6"/>
    <g>
      <path d="m57.18,22.18v1.02h-6.52v-5.09h1.19v4.07h5.33Z"/>
      <path d="m57.54,20.66c0-1.83,1.26-2.64,4.09-2.64s4.09.81,4.09,2.64-1.26,2.64-4.09,2.64-4.09-.81-4.09-2.64Zm6.97,0c0-1.14-.69-1.61-2.88-1.61s-2.9.47-2.9,1.61.71,1.61,2.9,1.61,2.88-.47,2.88-1.61Z"/>
      <path d="m66.51,23.21v-5.09h6.69v1.02h-5.49v1.28h5.34v.95h-5.34v1.84h-1.19Z"/>
      <path d="m73.79,19.14v-1.02h7.28v1.02h-3.04v4.07h-1.19v-4.07h-3.05Z"/>
    </g>
    <g>
      <path d="m54.27,33.46c1.19,0,2.43-.22,3.29-.4l.22.99c-1.01.25-2.34.43-3.55.43-2.66,0-3.72-.88-3.72-2.63s1.06-2.63,3.72-2.63c1.21,0,2.54.19,3.55.43l-.22.99c-.86-.17-2.1-.4-3.29-.4-2.01,0-2.57.51-2.57,1.6s.55,1.6,2.57,1.6Z"/>
      <path d="m58.19,31.86c0-1.83,1.26-2.64,4.09-2.64s4.09.81,4.09,2.64-1.26,2.64-4.09,2.64-4.09-.81-4.09-2.64Zm6.97,0c0-1.14-.69-1.61-2.88-1.61s-2.9.47-2.9,1.61.71,1.61,2.9,1.61,2.88-.47,2.88-1.61Z"/>
      <path d="m67.16,34.4v-5.09h1.37l4.82,3.8v-3.8h1.19v5.09h-1.34l-4.84-3.84v3.84h-1.19Z"/>
      <path d="m75.09,29.31h1.46l2.75,4.11,2.75-4.11h1.43l-3.39,5.09h-1.59l-3.4-5.09Z"/>
      <path d="m84.04,34.4v-5.09h6.69v.95h-5.49v1.16h5.34v.78h-5.34v1.25h5.49v.95h-6.69Z"/>
      <path d="m91.59,34.4v-5.09h4.98c1.25,0,2.04.46,2.04,1.72,0,1.1-.63,1.63-1.78,1.69h-.46s.43.29.43.29l1.73,1.39h-1.51l-1.96-1.61h-2.28v1.61h-1.19Zm1.19-2.51h3.69c.65,0,.91-.22.91-.77s-.26-.78-.91-.78h-3.69v1.55Z"/>
      <path d="m102.94,34.49c-1.21,0-2.66-.17-3.55-.38l.17-.96c1,.22,2.32.4,3.69.4,1.48,0,1.76-.16,1.76-.57,0-.45-.26-.52-.79-.57l-2.86-.21c-1.44-.09-2.05-.51-2.05-1.45,0-1.1.92-1.53,3.25-1.53.94,0,2.39.14,3.35.35l-.19.91c-.87-.17-2.25-.31-3.42-.31-1.57,0-1.84.13-1.84.55,0,.4.28.46.86.51l2.8.21c1.35.09,2.04.5,2.04,1.56s-.72,1.49-3.2,1.49Z"/>
      <path d="m106.96,34.4v-5.09h1.19v5.09h-1.19Z"/>
      <path d="m108.94,31.86c0-1.83,1.26-2.64,4.09-2.64s4.09.81,4.09,2.64-1.26,2.64-4.09,2.64-4.09-.81-4.09-2.64Zm6.97,0c0-1.14-.69-1.61-2.88-1.61s-2.9.47-2.9,1.61.71,1.61,2.9,1.61,2.88-.47,2.88-1.61Z"/>
      <path d="m117.91,34.4v-5.09h1.37l4.82,3.8v-3.8h1.19v5.09h-1.34l-4.84-3.84v3.84h-1.19Z"/>
      <path d="m129.74,34.49c-1.21,0-2.66-.17-3.55-.38l.17-.96c1,.22,2.32.4,3.69.4,1.48,0,1.76-.16,1.76-.57,0-.45-.26-.52-.79-.57l-2.86-.21c-1.44-.09-2.05-.51-2.05-1.45,0-1.1.92-1.53,3.25-1.53.94,0,2.39.14,3.35.35l-.19.91c-.87-.17-2.25-.31-3.42-.31-1.57,0-1.84.13-1.84.55,0,.4.28.46.86.51l2.8.21c1.35.09,2.04.5,2.04,1.56s-.72,1.49-3.2,1.49Z"/>
    </g>
    <g>
      <path d="m50.66,45.86v-5.09h6.69v.95h-5.49v1.16h5.34v.78h-5.34v1.25h5.49v.95h-6.69Z"/>
      <path d="m61.71,45.95c-1.21,0-2.66-.17-3.55-.38l.17-.96c1,.22,2.32.4,3.69.4,1.48,0,1.76-.16,1.76-.57,0-.45-.26-.52-.79-.57l-2.86-.21c-1.44-.09-2.05-.51-2.05-1.45,0-1.1.92-1.53,3.25-1.53.94,0,2.39.14,3.35.35l-.19.91c-.87-.17-2.25-.31-3.42-.31-1.57,0-1.84.13-1.84.55,0,.4.28.46.86.51l2.8.21c1.35.09,2.04.5,2.04,1.56s-.72,1.49-3.2,1.49Z"/>
      <path d="m69.23,45.95c-1.21,0-2.66-.17-3.55-.38l.17-.96c1,.22,2.32.4,3.69.4,1.48,0,1.76-.16,1.76-.57,0-.45-.26-.52-.79-.57l-2.86-.21c-1.44-.09-2.05-.51-2.05-1.45,0-1.1.92-1.53,3.25-1.53.94,0,2.39.14,3.35.35l-.19.91c-.87-.17-2.25-.31-3.42-.31-1.57,0-1.84.13-1.84.55,0,.4.28.46.86.51l2.8.21c1.35.09,2.04.5,2.04,1.56s-.72,1.49-3.2,1.49Z"/>
      <path d="m73.25,45.86v-5.09h6.69v.95h-5.49v1.16h5.34v.78h-5.34v1.25h5.49v.95h-6.69Z"/>
      <path d="m82.4,40.77l2.34,1.9,2.33-1.9h1.74l-3.14,2.54,3.18,2.55h-1.82l-2.32-1.9-2.34,1.9h-1.78l3.18-2.54-3.16-2.55h1.8Z"/>
    </g>
  </g>
</svg>