<?xml version="1.0" encoding="UTF-8"?>
<svg id="Layer_2" data-name="Layer 2" xmlns="http://www.w3.org/2000/svg" viewBox="0 0 161.26 53.08">
  <g id="Layer_1-2" data-name="Layer 1">
    <path d="m63,1.78v49.51c0,.98-.8,1.78-1.78,1.78H1.78c-.98,0-1.78-.8-1.78-1.78v-24.04c0-.71.42-1.36,1.08-1.64L60.52.15c1.18-.5,2.48.36,2.48,1.64Z"/>
    <g>
      <path d="m79.66,34.06v1.09h-7.15v-5.45h1.31v4.36h5.84Z"/>
      <path d="m79.92,32.43c0-1.96,1.38-2.83,4.48-2.83s4.48.87,4.48,2.83-1.38,2.83-4.48,2.83-4.48-.87-4.48-2.83Zm7.64,0c0-1.22-.76-1.73-3.16-1.73s-3.17.5-3.17,1.73.78,1.73,3.17,1.73,3.16-.5,3.16-1.73Z"/>
      <path d="m89.6,35.16v-5.45h7.33v1.1h-6.02v1.38h5.86v1.02h-5.86v1.97h-1.31Z"/>
      <path d="m97.43,30.8v-1.1h7.98v1.1h-3.33v4.36h-1.31v-4.36h-3.35Z"/>
    </g>
    <g>
      <path d="m76.47,43.15c1.3,0,2.67-.23,3.61-.42l.25,1.06c-1.11.26-2.57.46-3.89.46-2.92,0-4.08-.94-4.08-2.81s1.16-2.81,4.08-2.81c1.33,0,2.78.2,3.89.46l-.25,1.06c-.94-.18-2.31-.42-3.61-.42-2.21,0-2.81.54-2.81,1.71s.61,1.71,2.81,1.71Z"/>
      <path d="m80.63,41.43c0-1.96,1.38-2.83,4.48-2.83s4.48.87,4.48,2.83-1.38,2.83-4.48,2.83-4.48-.87-4.48-2.83Zm7.64,0c0-1.22-.76-1.73-3.16-1.73s-3.17.5-3.17,1.73.78,1.73,3.17,1.73,3.16-.5,3.16-1.73Z"/>
      <path d="m90.32,44.16v-5.45h1.5l5.28,4.07v-4.07h1.31v5.45h-1.47l-5.31-4.12v4.12h-1.31Z"/>
      <path d="m98.86,38.7h1.6l3.02,4.41,3.01-4.41h1.57l-3.72,5.45h-1.74l-3.73-5.45Z"/>
      <path d="m108.53,44.16v-5.45h7.33v1.02h-6.02v1.25h5.86v.84h-5.86v1.33h6.02v1.02h-7.33Z"/>
      <path d="m116.66,44.16v-5.45h5.46c1.37,0,2.23.49,2.23,1.84,0,1.18-.69,1.74-1.95,1.82h-.5s.47.31.47.31l1.9,1.49h-1.66l-2.15-1.73h-2.49v1.73h-1.31Zm1.31-2.69h4.04c.71,0,1-.23,1-.82s-.29-.84-1-.84h-4.04v1.66Z"/>
      <path d="m128.96,44.25c-1.33,0-2.91-.18-3.89-.41l.19-1.03c1.1.23,2.54.43,4.04.43,1.63,0,1.93-.17,1.93-.62,0-.48-.29-.55-.87-.61l-3.13-.22c-1.58-.1-2.25-.54-2.25-1.55,0-1.18,1.01-1.64,3.56-1.64,1.03,0,2.62.15,3.67.38l-.21.98c-.95-.18-2.46-.34-3.75-.34-1.73,0-2.02.14-2.02.59,0,.42.31.5.94.55l3.08.22c1.48.1,2.23.54,2.23,1.67s-.79,1.59-3.51,1.59Z"/>
      <path d="m133.22,44.16v-5.45h1.31v5.45h-1.31Z"/>
      <path d="m135.25,41.43c0-1.96,1.38-2.83,4.48-2.83s4.48.87,4.48,2.83-1.38,2.83-4.48,2.83-4.48-.87-4.48-2.83Zm7.64,0c0-1.22-.76-1.73-3.16-1.73s-3.17.5-3.17,1.73.78,1.73,3.17,1.73,3.16-.5,3.16-1.73Z"/>
      <path d="m144.94,44.16v-5.45h1.5l5.28,4.07v-4.07h1.31v5.45h-1.47l-5.31-4.12v4.12h-1.31Z"/>
      <path d="m157.75,44.25c-1.33,0-2.91-.18-3.89-.41l.19-1.03c1.1.23,2.54.43,4.04.43,1.63,0,1.93-.17,1.93-.62,0-.48-.29-.55-.87-.61l-3.13-.22c-1.58-.1-2.25-.54-2.25-1.55,0-1.18,1.01-1.64,3.56-1.64,1.03,0,2.62.15,3.67.38l-.21.98c-.95-.18-2.46-.34-3.75-.34-1.73,0-2.02.14-2.02.59,0,.42.31.5.94.55l3.08.22c1.48.1,2.23.54,2.23,1.67s-.79,1.59-3.51,1.59Z"/>
    </g>
    <g>
      <path d="m72.51,52.24v-5.45h7.33v1.02h-6.02v1.25h5.86v.84h-5.86v1.33h6.02v1.02h-7.33Z"/>
      <path d="m84.49,52.33c-1.33,0-2.91-.18-3.89-.41l.19-1.03c1.1.23,2.54.43,4.04.43,1.63,0,1.93-.17,1.93-.62,0-.48-.29-.55-.87-.61l-3.13-.22c-1.58-.1-2.25-.54-2.25-1.55,0-1.18,1.01-1.64,3.56-1.64,1.03,0,2.62.15,3.67.38l-.21.98c-.95-.18-2.46-.34-3.75-.34-1.73,0-2.02.14-2.02.59,0,.42.31.5.94.55l3.08.22c1.48.1,2.23.54,2.23,1.67s-.79,1.59-3.51,1.59Z"/>
      <path d="m92.59,52.33c-1.33,0-2.91-.18-3.89-.41l.19-1.03c1.1.23,2.54.43,4.04.43,1.63,0,1.93-.17,1.93-.62,0-.48-.29-.55-.87-.61l-3.13-.22c-1.58-.1-2.25-.54-2.25-1.55,0-1.18,1.01-1.64,3.56-1.64,1.03,0,2.62.15,3.67.38l-.21.98c-.95-.18-2.46-.34-3.75-.34-1.73,0-2.02.14-2.02.59,0,.42.31.5.94.55l3.08.22c1.48.1,2.23.54,2.23,1.67s-.79,1.59-3.51,1.59Z"/>
      <path d="m96.85,52.24v-5.45h7.33v1.02h-6.02v1.25h5.86v.84h-5.86v1.33h6.02v1.02h-7.33Z"/>
      <path d="m106.74,46.78l2.56,2.04,2.56-2.04h1.91l-3.44,2.72,3.48,2.73h-2l-2.54-2.04-2.57,2.04h-1.96l3.48-2.72-3.46-2.73h1.97Z"/>
    </g>
  </g>
</svg>